# xmcd CD database file
#
# Track frame offsets:
#	150
#	23777
#	51378
#	80029
#	104705
#	123231
#	148882
#	176802
#	200278
#	226608
#
# Disc length: 3315 seconds
#
# Revision: 1
# Processed by: cddbd v1.5.1PL0 Copyright (c) Steve Scherf et al.
# Submitted via: CDex 1.51
#
DISCID=8c0cf10a
DTITLE=YangYang - CAT'S EYE JAZZ
DYEAR=2003
DGENRE=Jazz
TTITLE0=SMOKE GETS IN YOUR EYES
TTITLE1=MOONLIGHT SERENADE
TTITLE2=I WILL WAIT FOR YOU
TTITLE3=MOON RIVER
TTITLE4=AUTUMN LEAVES
TTITLE5=LEFT ALONE
TTITLE6=GEORGIA ON MY MIND
TTITLE7=MY FUNNY VALENTEINE
TTITLE8=MISTY
TTITLE9=OVER THE RAINBOW
EXTD=YEAR: 2003
EXTT0=
EXTT1=
EXTT2=
EXTT3=
EXTT4=
EXTT5=
EXTT6=
EXTT7=
EXTT8=
EXTT9=
PLAYORDER=
